<?xml version="1.0" encoding="UTF-8"?>
<svg id="Layer_2" data-name="Layer 2" xmlns="http://www.w3.org/2000/svg" viewBox="0 0 252.28 76.65">
  <defs>
    <style>
      .cls-1 {
        fill: #e00;
      }
    </style>
  </defs>
  <g id="Layer_1-2" data-name="Layer 1">
    <g>
      <rect class="cls-1" x="61.88" y="60.68" width="188.89" height=".42"/>
      <polygon points="159.04 48.37 157.41 54.77 157.39 54.77 155.86 48.37 152.8 48.37 150.29 58.2 152.56 58.2 154.16 51.92 154.18 51.92 155.79 58.2 158.81 58.2 161.32 48.37 159.04 48.37"/>
      <path d="M145.13,53.3l1.73-2.82h.02l.17,2.82h-1.93Zm.78-4.93c-2.13,3.29-4.23,6.62-6.47,9.83h2.84l1.7-2.84h3.04l.17,2.84h2.75c-.33-3.27-.72-6.61-.92-9.83h-3.11Z"/>
      <path d="M164.53,51.01c.14-.52,.89-.7,1.29-.71,.76-.02,1.21,.19,1.71,.5,0,0,.49-1.94,.51-2.04-.81-.45-1.69-.57-2.34-.57-2.3,0-3.5,1.39-3.73,2.55-.44,2.29,2.29,3.56,2,4.61-.21,.78-.96,.83-1.4,.83-.72,0-1.41-.23-2.02-.58l-.55,2.29c.73,.25,1.78,.48,2.63,.48,2.69,0,3.54-1.21,3.83-2.55,.48-2.29-2.25-3.54-1.93-4.81"/>
      <path d="M138.26,51.01c.13-.52,.88-.7,1.28-.71,.77-.02,1.22,.19,1.72,.5,0,0,.63-1.87,.64-1.96-.85-.55-1.82-.64-2.47-.64-2.31,0-3.51,1.39-3.73,2.55-.43,2.29,2.29,3.56,1.99,4.61-.22,.78-.97,.83-1.39,.83-.72,0-1.41-.23-2.02-.58l-.55,2.29c.72,.25,1.78,.48,2.62,.48,2.69,0,3.55-1.21,3.83-2.55,.49-2.29-2.25-3.51-1.92-4.81"/>
      <polygon points="205.31 54.75 205.3 54.75 203.77 48.36 200.71 48.36 198.2 58.18 200.48 58.18 202.08 51.9 202.1 51.9 203.69 58.18 206.72 58.18 209.22 48.36 206.95 48.36 205.31 54.75"/>
      <polygon points="176.44 50.46 180.18 50.46 180.72 48.36 174.4 48.36 171.88 58.18 174.48 58.18 175.47 54.29 178.61 54.29 179.13 52.19 176.01 52.19 176.44 50.46"/>
      <polygon points="217.45 48.36 210.14 48.36 209.6 50.46 211.97 50.46 209.99 58.18 212.58 58.18 214.55 50.46 216.91 50.46 217.45 48.36"/>
      <polygon points="218.36 48.36 215.85 58.18 218.44 58.18 220.95 48.36 218.36 48.36"/>
      <polygon points="226.8 54.29 227.35 52.18 224.1 52.18 224.54 50.46 228.64 50.46 229.18 48.36 222.49 48.36 219.98 58.18 226.67 58.18 227.21 56.07 223.11 56.07 223.57 54.29 226.8 54.29"/>
      <polygon points="243.39 54.29 243.93 52.18 240.62 52.18 241.06 50.46 245.16 50.46 245.69 48.36 239.01 48.36 236.49 58.18 243.18 58.18 243.72 56.07 239.63 56.07 240.08 54.29 243.39 54.29"/>
      <path d="M195.89,53.28c-.42,1.57-1.62,2.95-3.09,2.95-1.57,0-1.97-1.41-1.59-2.93,.38-1.52,1.52-2.95,3.08-2.95s1.96,1.35,1.6,2.93m-1.05-5.07c-2.92,0-5.38,1.83-6.21,5.07-.83,3.27,.69,5.1,3.63,5.1,2.75,0,5.25-1.62,6.17-4.81,.95-3.46-.65-5.36-3.58-5.36"/>
      <path d="M248.78,51c.14-.51,.89-.7,1.29-.71,.76-.02,1.22,.19,1.7,.5,0,0,.5-1.94,.51-2.04-.8-.46-1.69-.56-2.34-.56-2.3,0-3.51,1.38-3.72,2.54-.44,2.29,2.29,3.56,1.99,4.61-.22,.79-.97,.83-1.39,.83-.73,0-1.42-.24-2.02-.58l-.55,2.28c.73,.26,1.79,.48,2.62,.48,2.69,0,3.55-1.21,3.83-2.55,.49-2.3-2.28-3.56-1.92-4.81"/>
      <path d="M185.87,53.86c1.31-.24,2.33-1.4,2.61-2.51,.49-1.94-.07-2.99-2.25-2.99h-4.39l-2.5,9.82h2.47l1.98-7.76h1.28c.37,0,1.17,0,.91,1.04-.2,.78-.8,1.29-1.94,1.27h-.92s.91,5.44,.91,5.44h2.79s-.91-4.11-.94-4.32"/>
      <path d="M234.52,53.86c1.31-.24,2.32-1.41,2.61-2.51,.5-1.94-.08-2.99-2.25-2.99h-4.39l-2.5,9.82h2.48l1.98-7.76h1.27c.37,0,1.17,0,.9,1.05-.2,.77-.79,1.29-1.93,1.27h-.92l.9,5.44h2.78s-.9-4.11-.93-4.32"/>
      <polygon points="98.62 58.18 99.16 56.08 95.06 56.08 95.52 54.3 98.86 54.3 99.4 52.2 96.06 52.2 96.5 50.47 100.6 50.47 101.13 48.37 94.44 48.36 91.93 58.18 98.62 58.18"/>
      <polygon points="81.29 58.18 81.83 56.08 77.73 56.08 78.18 54.3 81.49 54.3 82.02 52.2 78.72 52.2 79.16 50.47 83.26 50.47 83.8 48.37 77.11 48.37 74.6 58.18 81.29 58.18"/>
      <path d="M104.23,58.34c.46,0,1.76-.15,2.49-.28l.63-2.27c-.76,.2-1.55,.4-2.57,.4-1.59,0-1.99-1.41-1.6-2.93,.34-1.31,1.53-2.94,3.55-2.94,.67,0,1.28,.17,1.87,.39l.56-2.2c-.6-.23-1.59-.34-2.31-.34-2.96,0-5.44,1.82-6.29,5.08-.84,3.27,.71,5.09,3.67,5.09"/>
      <polygon points="110.6 58.18 113.11 48.36 110.51 48.36 108 58.18 110.6 58.18"/>
      <polygon points="67.02 51.16 67.05 51.16 66.91 58.18 69.12 58.19 72.62 51.15 72.65 51.15 70.85 58.18 73.05 58.18 75.55 48.37 72.11 48.37 69.05 54.54 69.03 54.54 69.19 48.37 65.55 48.37 63.04 58.18 65.23 58.18 67.02 51.16"/>
      <polygon points="114.41 58.18 116.01 51.92 116.04 51.92 117.63 58.18 120.65 58.18 123.16 48.37 120.89 48.37 119.26 54.75 119.24 54.75 117.71 48.37 114.66 48.36 112.14 58.18 114.41 58.18"/>
      <path d="M89.62,53.27c-.37,1.44-1.39,2.81-2.83,2.81h-1.12l1.43-5.61h1.29c1.38,0,1.69,.98,1.22,2.8m2.6,0c1.06-4.15-1.19-4.9-2.41-4.9h-4.66l-2.5,9.82h4.11c2.83,0,4.71-2.06,5.45-4.92"/>
      <path d="M126.39,51.01c.12-.52,.88-.7,1.28-.71,.76-.01,1.21,.19,1.71,.5,0,0,.49-1.94,.51-2.04-.8-.46-1.69-.56-2.33-.56-2.32,0-3.51,1.38-3.74,2.54-.43,2.29,2.29,3.56,2,4.61-.22,.79-.97,.83-1.4,.83-.72,0-1.41-.23-2.01-.58l-.55,2.29c.72,.25,1.79,.48,2.63,.48,2.69,0,3.54-1.21,3.83-2.55,.49-2.29-2.26-3.51-1.92-4.81"/>
      <path class="cls-1" d="M26.5,63.62c.72-.42,2.34-1.29,2.52-1.4,.31-.18,.5-.16,.5-.06,.04,.37,.03,1.13,.5,1.29,.14,.04,.48-.12,.55-.03,.17,.25,.18,.21,.22,.28,.06,.09,.29,.04,.34,.09,.13,.12,0,.27,.07,.35,.11,.13,.34-.08,.46-.05,.21,.04,.26,.28,.22,.43-.05,.25,.1,.44,.5,.11,.22-.18,.23-.09,.41-.18,.11-.05,.29-.05,.36,.03,.08,.08,.2,.21,.31,.25,.17,.06,.35,0,.46,.04,.15,.06,.16,.29,.29,.32,.13,.02,.27-.24,.36-.16,.24,.22-.2,.62,.11,.71,.17,.05,.23-.09,.37-.11,.13-.02,.21-.18,.33-.18s.2,.13,.34,.05c.12-.06,.22-.11,.32-.18,.17-.1,.34-.05,.43-.12,.12-.09,.03-.35,.37-.28,.35,.06-.05,.38,.09,.52,.12,.1,.41,0,.51-.03,.18-.06,.36-.29,.42-.45,.07-.2,.36-.83,.48-1,.12-.18,.41-.85,.56-1.08,.15-.23,.77-1.21,.82-1.37,.06-.16,.28-.36,.34-.48,.05-.12,.18-.5,.34-.81,.15-.31,.57-.92,.62-1.04,.04-.11,.37-.87,.48-1.1,.11-.23,.52-.75,.61-1.01,.09-.25,.37-.78,.37-.78l.29-.48s.09-.21,.23-.5c.14-.29,.54-.9,.66-1.12,.11-.21,.44-.65,.44-.65l.25-.56,.18-.43s.16-.5,.23-.63c.08-.14,.34-.46,.42-.64,.07-.17,.31-.94,.42-1.17,.11-.23,.67-1.23,.73-1.42,.05-.19,.64-1.23,.69-1.44,.06-.22,.08-.5,.16-.64,.08-.13,.31-.48,.35-.58,.03-.1,.42-1.02,.48-1.15,.06-.13,.09-.38,.25-.38,.15,0,.26,.16,.36,.31,.12,.16,.35,.14,.48,.27,.13,.14,.58,.62,.6,.69,.02,.08,.26,.1,.33,.17,.05,.08,.1,.27,.17,.31,.07,.04,.46,.31,.54,.42,.08,.12,.17,.35,.27,.42,.1,.07,.54,.35,.6,.46,.05,.11,.69,.89,.77,1.02,.07,.13,.13,.36,.19,.46,.05,.1,.29,.23,.31,.33,.02,.09,.04,.44,.1,.54,.05,.1,.32,.21,.36,.31,.04,.09,.16,.46,.21,.52,.05,.05,.17,.14,.21,.21,.04,.08,.08,.5,.13,.57,.06,.08,.25,.41,.31,.54,.06,.14,.26,.38,.29,.48,.04,.1,.06,.48,.09,.61,.04,.14,.21,.42,.23,.5,.01,.07,.06,.31,.06,.31l.15,.37s.17,.36,.17,.5,.04,.29,.06,.38c.02,.09,.17,.34,.17,.42s.21,.52,.21,.52c0,0-.04,.38,0,.48,.04,.09,.21,.36,.21,.46s-.05,.34-.05,.34l.09,.16s-.05,.21,0,.29c.03,.08-.04,.25,0,.31,.06,.05,.22,.46,.22,.46-.11,.14-8.15,3.85-11.59,5.45-4.95,2.31-15.26,7.48-16.36,8.12-1.1,.63-1.78,1-2.05,.86-.61-.31-1.61-1.19-2.28-3.08-.58-1.59-.58-2.92-.53-3.58,.04-.5,0-.89,.77-1.33,.27-.15,1.68-.95,2.4-1.37"/>
      <path class="cls-1" d="M12.23,35.19c.04,.08,.21,.07,.33,.09,.07,.02,.2,.14,.27,.15,.08,0,.19-.03,.24,0,.12,.09,.1,.22,.18,.33,.08,.11,.12,.31,.24,.35,.11,.04,.26,.02,.31,.13,.04,.11-.05,.29,.04,.44,.21,.38,.02,1.44,.22,1.52,.19,.07,.77-.11,.97-.29,.2-.18,.5-.51,.65-.57,.29-.13,.87-.45,1.15-.5,.28-.06,.42-.51,.69-.54,.27-.02,.17-.24,.37-.31,.19-.08,.55-.28,.67-.16,.05,.05,.16,.2,.34,.27,.2,.08,.43-.03,.47,.21,.05,.35,.57,.04,.57,.04,0,0,.64-.41,.91-.53,.27-.12,.99-.49,.99-.49,0,0,.56-.29,.8-.4,8.67-4.16,15.51-6.46,21.79-8.89,9.77-3.79,26.69-8.13,29.9-8.93,.34-.08,1.09-.2,1.18-.26,.09-.05,.25-.09,.32-.4,.08-.31-.16-.73-.16-.88s.35-.77,.39-1.04c.03-.27-.23-.31-.23-.31,0,0,.03-.33-.04-.58-.07-.24-.5-.46-.58-.65-.07-.19,0-.77-.07-.96-.07-.19-.31-.35-.31-.35,0,0,.06-.1,0-.27-.05-.17-.23-.16-.23-.16,0,0,.07-.37,.04-.5-.03-.13-.23-.23-.23-.23,0,0-.23-.15-.23-.3s-.04-.27-.16-.35c-.12-.08-.46-.08-.58-.11-.12-.04-.38-.11-.58-.08-.19,.04-.27,.19-.81,.3-.54,.12-.77,0-1,.04-.23,.04-.49,.2-.77,.27-2.62,.68-14.63,4.17-23.48,7.5-8.23,3.09-18.04,7.56-24.02,10.66-4.52,2.36-6.94,3.72-7.94,4.34-.52,.32-1.08,.69-1.17,.84-.14,.24-.29,.59-.59,.63-.36,.06-.31,.25-.42,.28-.14,.03-.29,.18-.41,.29-.11,.11-.07,.26-.03,.35"/>
      <path class="cls-1" d="M49.62,29.82c-.4-.24-.27-.46,.2-.66,2.86-1.22,10.09-3.8,14.24-5.12,3.54-1.12,13.31-4.31,16.03-5.09,.66-.19,.92-.18,1.21,.12,.74,.79,1.46,1.84,2.14,3.15,.62,1.21,1.16,2.96,1.37,4.06,.16,.81-.22,.95-.65,1.14-3.02,1.35-10.49,4.62-13.59,6.09-3.04,1.43-8.58,4.1-10.46,5.05-.8,.4-.67,.56-1.2-.05-.17-.18-.43-.62-.5-.73-.08-.12-1.11-1.04-1.23-1.15-.11-.12-.69-.81-.85-.92-.15-.12-.65-.81-.8-.89-.16-.08-.42-.2-.53-.31-.12-.12-.32-.36-.43-.43-.11-.08-.38-.35-.38-.35l-.36-.32-.31-.35s-.27-.34-.46-.42c-.19-.08-.45-.39-.54-.51-.07-.11-.68-.88-1-1.08-.31-.19-1.05-.67-1.2-.79-.15-.11-.36-.23-.69-.43"/>
      <path class="cls-1" d="M60.62,40.36c-.29-.3,.08-.33,.42-.47,1.27-.49,8.8-2.85,15.36-4.58,6.54-1.71,15.99-3.68,17.4-3.96,.59-.12,.82-.03,1.12,.45,.35,.56,1.07,2.42,1.35,3.92,.35,1.91,.01,3.85-.15,4.31-.14,.38-.67,.41-1.95,.76-.77,.21-4.03,1.05-5.37,1.44-1.54,.45-5.61,1.62-7.12,2.14-1.86,.63-4.31,1.44-4.31,1.44l-12.97,.22s-.19-.87-.3-.95c-.12-.08-.31-.5-.43-.62-.12-.12-.27-.54-.27-.54,0,0-.11-.46-.23-.54-.11-.08-.39-.74-.51-.82-.12-.08-.38-.41-.49-.57-.12-.16-.19-.35-.38-.5-.19-.15-.43-.46-.58-.54-.16-.08-.29-.31-.59-.61"/>
      <path class="cls-1" d="M44.94,15.35c-.37,.01-.7,0-.79-.1-.04-.06,0-.17-.09-.24-.09-.08-.27-.05-.33,0-.05,.04-.04,.04-.17,.08-.13,.04-.62-.13-.8-.07-.17,.06-.54,.07-.66,.01-.12-.06-.14-.4-.36-.49-.11-.05-.47-.25-.58-.45-.12-.2-.43-.51-.49-.65-.07-.14-.16-.37-.21-.49-.04-.12-.16-.36-.23-.45-.07-.09-.17-.16-.24-.24-.08-.09-.14-.36-.22-.48-.04-.06-.13-.18-.17-.28-.05-.09-.05-.19-.08-.3-.04-.11-.18-.26-.2-.36-.03-.1-.07-.78-.06-1.3,.01-.52,0-.98,.06-1.2,.05-.21,.16-.41,.2-.62,.04-.21,.32-.92,.39-1.26,.07-.33,.24-.95,.33-1.17,.08-.22,.31-.79,.43-.98,.12-.19,.55-.83,.72-1.05,.17-.22,.97-1.01,1.16-1.15,.19-.14,.62-.46,.76-.56,.08-.06,.64-.45,.82-.56,.13-.08,.34-.08,.34-.08l.19-.19s.1-.12,.2-.19c.1-.07,.35-.07,.35-.07,0,0,.28-.22,.57-.16,.13,.02,.21-.21,.33-.23,.12-.03,.53-.09,.59-.03,.06,.06,.13,.13,.37,.18,.23,.04,.43-.01,.51,.01,.12,.03,.25,.18,.33,.21,.09,.03,1.15,1,1.29,1.24,.05,.08,.07,.24,.09,.29,.04,.08,.22,.2,.29,.46,.05,.21,.26,.27,.29,.58,0,.18,.35,.33,.45,.7,.03,.09,.07,.46,.1,.51,.02,.06,.1,.08,.14,.21,.04,.13,.08,.32,.06,.48-.02,.16,.27,.75,.25,1.11-.03,.36-.1,.75-.19,1.02-.09,.27-.03,.79-.09,1.01-.05,.21-.21,.73-.25,.89-.03,.16-.48,1.25-.55,1.37-.07,.12-.33,.61-.44,.76-.11,.14-1.01,1.38-1.16,1.54-.15,.16-.55,.46-.63,.58-.11,.16-.19,.35-.31,.53-.17,.28-.42,.07-.53,.27-.16,.28-.46,.35-.52,.51-.09,.25-.28,.46-.37,.54-.22,.17-.67,.31-.89,.32"/>
      <path class="cls-1" d="M19.01,53.37s-3.8,1.28-5.31,1.82c-1.44,.51-3.01,1.07-4.07,1.5-1.28,.52-3.55,1.45-4.1,1.64-.84,.3-1.19,.12-1.43-.38-.23-.5-.78-1.55-1.08-2.77-.31-1.23-.42-2.26-.44-2.64-.02-.37,.3-1.05,.76-1.31,.46-.25,1.57-.93,2.45-1.44,1.69-.98,7.52-4.08,10.99-5.88,3.67-1.9,9.48-4.71,12.6-6.26,3.12-1.54,8.23-3.96,8.85-4.23,.61-.27,1.26-.58,1.57-.58s.19,.15,.19,.27-.1,.16-.14,.39c-.03,.23-.01,.49-.09,.72-.08,.23-.28,.45-.32,.6-.04,.15-.07,.7-.22,.89-.15,.2-.71,1.26-.82,1.76-.11,.5-.37,1.32-.48,1.51-.12,.19-.48,.91-.52,1.14-.04,.23-.29,.77-.36,1.01-.08,.23-.55,1.09-.62,1.24-.08,.15-.38,1.18-.46,1.34-.08,.16-.38,.61-.38,.61l-.15,.66s-.43,.62-.43,.73-.31,1.16-.46,1.39c-.15,.23-.88,1.88-1.04,2.46-.15,.58-.42,1.42-.5,1.62-.08,.19-.5,.88-.58,1.11-.08,.23-.42,1.39-.54,1.62-.11,.23-.42,.88-.42,1.12s-.23,.73-.42,1.15c-.2,.42-.42,1.16-.54,1.43-.12,.27-.27,.45-.31,.61-.04,.15-.08,.58-.11,.7-.04,.11-.12,.31-.12,.31-.19,.09-10.54,4.54-12,5.23-1.47,.7-11.97,5.67-12.63,5.98-.65,.31-1.53,.98-2.16,.55-.83-.56-1.62-1.75-2.16-2.8-.44-.87-.92-2.33-1-3.38-.09-1.33,.46-1.57,2.41-2.7,.95-.55,8.51-4.54,10.94-5.79,.69-.35,5.66-2.97,5.66-2.97"/>
      <path d="M177.74,70.63c.32-1.19-.84-2.13-2.89-2.13s-3.71,.93-4.03,2.13c-.26,.99,.48,1.79,1.91,2.04l-.21,.79c-1.17,.02-2.34,.04-3.5,.04l-.18,1.51c2.22,0,6.37-.2,8.93-.51,.06-.46,.16-.92,.22-1.38-1.15,.11-2.28,.2-3.38,.26l.19-.72c1.53-.26,2.68-1.05,2.94-2.02m5.31-6.12h-2.09l-3.25,12.14h2.09l3.25-12.14Zm-4.03,3.79l.36-1.34h-8.22l-.36,1.34h8.22Zm-5.57-1.86h4.02l.36-1.34h-4.02l-.36,1.34Zm2.19,4.19c-.13,.47-.81,.82-1.57,.82s-1.25-.35-1.12-.82c.13-.49,.79-.86,1.57-.86s1.26,.37,1.12,.86m-11.32-6.12h-2.05l-3.25,12.14h2.05l1.65-6.16h1.93l.39-1.47h-1.93l1.21-4.51Zm-4.58,7.79c-1.91-1.06-2.58-2.74-1.9-5.28l.4-1.51h-2.15l-.42,1.57c-.68,2.55-2.15,4.34-4.9,5.58,.31,.45,.62,.91,.92,1.36,1.4-.55,3.44-2.11,4.13-3.37,.1,1.18,1.33,2.51,2.35,3.06,.52-.47,1.05-.93,1.57-1.42m-22.48-4.12c.24-.88,1.19-1.46,2.16-1.46s1.64,.58,1.4,1.46c-.24,.88-1.22,1.47-2.19,1.47s-1.61-.59-1.37-1.47m5.25,4.05c-1.08,.09-2.82,.2-4.72,.26-1.39,.04-2.84,.04-4.46,.04l-.19,1.57c1.25,.01,2.97-.04,4.52-.1,1.46-.06,3.53-.22,4.61-.35l.23-1.42Zm4.78-7.71h-2.06l-3.25,12.14h2.06l3.25-12.14Zm-12.04,3.66c-.47,1.77,.86,2.91,3.01,2.91s4.13-1.14,4.61-2.91c.47-1.74-.89-2.89-3.05-2.89s-4.09,1.15-4.56,2.89m-7.16,3.64l.38-1.43h-12.61l-.38,1.43h12.61Zm-.85-2.47l.38-1.41h-7.33l.81-3.02h-2.09l-1.19,4.43h9.43Zm-1.81,6.99l.38-1.41h-7.51l.59-2.19h-2.09l-.96,3.6h9.6Zm-22.67,.1l.23-.87,.57,1.08c.79-.2,2.1-.87,2.76-1.72,.16,.84,1.07,1.5,1.69,1.65l1.42-1.41c-1.31-.33-1.78-1.33-1.43-2.62l.27-1.02h-2.03l-.27,1.02c-.36,1.34-1.48,2.23-2.86,2.61l.95-3.53h-1.93l-.34,1.28h-1.19l.33-1.23h-1.94l-1.28,4.76h5.07Zm-4.11-8.52c-.45,1.68,.81,2.84,2.91,2.84s3.99-1.15,4.44-2.84c.46-1.7-.85-2.83-2.92-2.83s-3.97,1.13-4.43,2.83m10.68,3.07l1.74-6.48h-2.11l-.7,2.63h-1.56l-.39,1.45h1.56l-.64,2.41h2.11Zm-8.68-3.06c.23-.86,1.06-1.38,2.03-1.38s1.55,.53,1.32,1.38c-.23,.87-1.11,1.4-2.07,1.4s-1.52-.54-1.29-1.4m.54,7.17h-1.19l.24-.91h1.19l-.24,.91Zm-12.72-.97c-.18,.68-1.24,1.1-2.96,1.1s-2.48-.42-2.3-1.1,1.26-1.11,2.89-1.11c1.72,0,2.55,.44,2.37,1.11m2.81-2.78l1.83-6.84h-2.11l-.51,1.92h-2.14l-.37,1.38h2.14l-.28,1.06h-2.25l-.37,1.38h2.25l-.29,1.09h2.11Zm-9.38-6.07l-.39,1.47h4.33c-.68,1.54-3.32,3.09-5.97,3.53l.41,1.42c4.18-.92,7.26-3.09,8.26-6.43h-6.64Zm8.72,8.85c.41-1.54-1.1-2.55-4.13-2.55s-5.01,1.01-5.43,2.55c-.41,1.54,1.09,2.52,4.07,2.52s5.08-.99,5.49-2.52m-27.73-1.82l-.38,1.42h7.51l-.78,2.91h2.08l1.16-4.33h-3.68l.51-1.92h5.26l.38-1.42h-1.93c.63-1.15,1.14-2.66,1.48-4.06h-9.38l-.38,1.42h7.32c-.19,.78-.69,2.01-1.03,2.64h-8.69l-.38,1.42h5.26l-.51,1.92h-3.81Z"/>
    </g>
  </g>
</svg>