<?xml version="1.0" encoding="UTF-8"?>
<svg id="_레이어_1" data-name="레이어 1" xmlns="http://www.w3.org/2000/svg" viewBox="0 0 242.71 73.8">
  <defs>
    <style>
      .cls-1 {
        fill: #e00;
      }
    </style>
  </defs>
  <g id="_레이어_2" data-name="레이어 2">
    <g id="Layer_1" data-name="Layer 1">
      <rect class="cls-1" x="59.51" y="58.4" width="181.8" height=".4"/>
      <polygon points="153.01 46.5 151.41 52.7 151.41 52.7 150.01 46.5 147.01 46.5 144.61 56 146.81 56 148.31 49.9 148.31 49.9 149.91 56 152.81 56 155.21 46.5 153.01 46.5"/>
      <path d="m139.61,51.3l1.7-2.7h0l.2,2.7h-1.9Zm.8-4.8c-2,3.2-4.1,6.4-6.2,9.5h2.7l1.6-2.7h2.9l.2,2.7h2.6c-.3-3.1-.7-6.4-.9-9.5h-2.9Z"/>
      <path d="m158.31,49c.1-.5.9-.7,1.2-.7.6,0,1.2.2,1.6.5l.5-1.9c-.7-.4-1.5-.6-2.3-.5-2.2,0-3.4,1.3-3.6,2.5-.4,2.2,2.2,3.4,1.9,4.4-.2.6-.8.9-1.3.8-.7,0-1.3-.2-1.9-.6l-.5,2.2c.8.3,1.7.4,2.5.5,2.6,0,3.4-1.2,3.7-2.5.5-2.2-2.1-3.4-1.8-4.7"/>
      <path d="m133.01,49c.1-.5.8-.7,1.2-.7.6,0,1.2.2,1.7.5,0,0,.6-1.8.6-1.9-.7-.4-1.5-.6-2.4-.6-2.2,0-3.4,1.3-3.6,2.5-.4,2.2,2.2,3.4,1.9,4.4-.2.6-.8.9-1.3.8-.7,0-1.3-.2-1.9-.6l-.5,2.2c.8.3,1.7.4,2.5.5,2.6,0,3.4-1.2,3.7-2.5.5-2.2-2.2-3.3-1.9-4.6"/>
      <polygon points="197.51 52.7 197.51 52.7 196.11 46.5 193.11 46.5 190.71 56 192.91 56 194.41 49.9 194.51 49.9 196.01 56 198.91 56 201.31 46.5 199.11 46.5 197.51 52.7"/>
      <polygon points="169.81 48.5 173.41 48.5 173.91 46.5 167.81 46.5 165.41 56 167.91 56 168.81 52.2 171.81 52.2 172.31 50.2 169.31 50.2 169.81 48.5"/>
      <polygon points="209.21 46.5 202.21 46.5 201.71 48.5 204.01 48.5 202.01 56 204.51 56 206.41 48.5 208.71 48.5 209.21 46.5"/>
      <polygon points="210.11 46.5 207.71 56 210.21 56 212.61 46.5 210.11 46.5"/>
      <polygon points="218.21 52.2 218.81 50.2 215.61 50.2 216.11 48.5 220.01 48.5 220.51 46.5 214.11 46.5 211.71 56 218.11 56 218.61 53.9 214.71 53.9 215.11 52.2 218.21 52.2"/>
      <polygon points="234.21 52.2 234.71 50.2 231.51 50.2 231.91 48.5 235.91 48.5 236.41 46.5 230.01 46.5 227.61 56 234.01 56 234.51 53.9 230.61 53.9 231.01 52.2 234.21 52.2"/>
      <path d="m188.51,51.2c-.4,1.5-1.6,2.8-3,2.8s-1.9-1.4-1.5-2.8c.4-1.5,1.5-2.8,3-2.8s1.9,1.3,1.5,2.8m-1-4.8c-2.9,0-5.4,2-6,4.9-.8,3.1.7,4.9,3.5,4.9s5.3-1.9,5.9-4.6c1-3.4-.6-5.2-3.4-5.2"/>
      <path d="m239.41,49c.1-.5.9-.7,1.2-.7.6,0,1.2.1,1.6.5l.5-1.9c-.7-.4-1.5-.6-2.2-.5-2.2,0-3.4,1.3-3.6,2.4-.4,2.2,2.2,3.4,1.9,4.4-.2.6-.8.9-1.3.8-.7,0-1.3-.2-1.9-.6l-.5,2.2c.8.3,1.7.4,2.5.5,2.6,0,3.4-1.2,3.7-2.5.4-2.1-2.2-3.3-1.9-4.6"/>
      <path d="m178.81,51.8c1.2-.3,2.2-1.2,2.5-2.4.5-1.9-.1-2.9-2.2-2.9h-4.2l-2.4,9.5h2.4l1.9-7.5h1.2c.4,0,1.1,0,.9,1-.2.9-1,1.4-1.9,1.3h-.9l.9,5.2h2.7s-.9-4-.9-4.2"/>
      <path d="m225.71,51.8c1.2-.3,2.2-1.2,2.5-2.4.5-1.9-.1-2.9-2.2-2.9h-4.2l-2.4,9.5h2.4l1.9-7.5h1.2c.4,0,1.1,0,.9,1-.2.8-1,1.4-1.9,1.2h-.9l.9,5.2h2.7s-.9-3.9-.9-4.1"/>
      <polygon points="94.91 56 95.41 53.9 91.41 53.9 91.91 52.2 95.11 52.2 95.61 50.2 92.41 50.2 92.81 48.5 96.81 48.5 97.31 46.5 90.81 46.5 88.41 56 94.91 56"/>
      <polygon points="78.21 56 78.71 53.9 74.81 53.9 75.21 52.2 78.41 52.2 78.91 50.2 75.71 50.2 76.11 48.5 80.11 48.5 80.61 46.5 74.21 46.5 71.81 56 78.21 56"/>
      <path d="m100.31,56.1c.8,0,1.6-.1,2.4-.3l.6-2.2c-.8.2-1.6.4-2.5.4-1.5,0-1.9-1.4-1.5-2.8.4-1.6,1.8-2.8,3.4-2.8.6,0,1.2.1,1.8.4l.5-2.1c-.7-.2-1.5-.3-2.2-.3-2.9,0-5.5,2-6,4.9-.9,3.1.6,4.8,3.5,4.8"/>
      <polygon points="106.41 56 108.81 46.5 106.31 46.5 103.91 56 106.41 56"/>
      <polygon points="64.51 49.2 64.51 49.2 64.41 56 66.51 56 69.81 49.2 69.91 49.2 68.11 56 70.31 56 72.71 46.5 69.41 46.5 66.41 52.5 66.41 52.5 66.51 46.5 63.01 46.5 60.61 56 62.71 56 64.51 49.2"/>
      <polygon points="110.11 56 111.61 49.9 111.61 49.9 113.21 56 116.11 56 118.51 46.5 116.31 46.5 114.71 52.7 114.71 52.7 113.21 46.5 110.31 46.5 107.91 56 110.11 56"/>
      <path d="m86.21,51.2c-.4,1.4-1.3,2.7-2.7,2.7h-1.1l1.4-5.4h1.2c1.4,0,1.7,1,1.2,2.7m2.5,0c1-4-1.2-4.7-2.3-4.7h-4.5l-2.4,9.5h4c2.7,0,4.5-2,5.2-4.8"/>
      <path d="m121.61,49c.1-.5.8-.7,1.2-.7.6,0,1.2.2,1.6.5l.5-1.9c-.7-.4-1.5-.6-2.2-.5-2.2,0-3.4,1.3-3.6,2.5-.4,2.2,2.2,3.4,1.9,4.4-.2.6-.8.9-1.3.8-.7,0-1.3-.2-1.9-.6l-.5,2.2c.8.3,1.7.4,2.5.5,2.6,0,3.4-1.2,3.7-2.5.4-2.2-2.2-3.4-1.9-4.7"/>
      <path class="cls-1" d="m25.51,61.2c.7-.4,2.3-1.2,2.4-1.3.2-.1.5-.2.5-.1,0,.3,0,1.1.5,1.2.1,0,.5-.1.5,0,.1.1.1.2.2.3,0,.1.3,0,.3.1s0,.3.1.3c.1.1.3-.1.4,0,.2.1.3.2.2.4,0,.2.1.4.5.1.2-.2.2-.1.4-.2.1-.1.2-.1.4,0,.1.1.2.2.3.2.2.1.3,0,.4,0s.2.3.3.3.3-.2.3-.2c.1.1-.2.6.1.7.2,0,.2-.1.4-.1.1,0,.2-.2.3-.2s.2.1.3,0c.1,0,.2-.1.3-.2.2-.1.3,0,.4-.1s0-.3.4-.3,0,.4.1.5.4,0,.5,0c.2-.1.3-.2.4-.4.1-.3.3-.7.5-1,.1-.2.4-.8.5-1s.7-1.2.8-1.3c.1-.2.3-.3.3-.5.1-.1.2-.5.3-.8s.6-.9.6-1,.4-.8.5-1,.5-.7.6-1c.1-.2.4-.8.4-.8l.3-.5s.1-.2.2-.5c.1-.3.5-.9.6-1.1.1-.2.3-.4.4-.6l.2-.5.2-.4s.2-.5.2-.6c.1-.1.3-.4.4-.6s.3-.9.4-1.1.6-1.2.7-1.4c.1-.2.6-1.2.7-1.4,0-.2.1-.4.2-.6.1-.1.3-.5.3-.6s.4-1,.5-1.1c.1-.2.1-.4.2-.4.2,0,.2.2.3.3s.3.1.5.3.4.4.6.7c0,.1.3.1.3.2.1.1.1.3.2.3.2.1.4.3.5.4.1.1.1.3.2.4.2.1.4.3.6.4,0,.1.7.9.8,1s.1.3.2.4.3.2.3.3c0,.2,0,.4.1.5s.3.2.3.3c.1.2.1.3.2.5l.2.2c0,.2.1.4.1.5.1.2.2.3.3.5.1.1.3.4.3.5s0,.5.1.6.2.4.2.5v.3l.1.4c.1.2.1.3.2.5,0,.1,0,.2.1.4,0,.1.2.3.2.4.1.2.1.3.2.5v.5c.1.1.2.3.2.5v.3l.1.2v.6c.1.1.2.3.2.4-.1.1-7.8,3.7-11.1,5.2-4.8,2.2-14.7,7.2-15.8,7.8-1.1.6-1.7,1-2,.8-1.1-.7-1.8-1.7-2.2-3-.4-1.1-.6-2.3-.5-3.4-.1-.5.2-1.1.7-1.3.3.1,1.7-.7,2.4-1.1"/>
      <path class="cls-1" d="m11.71,33.8c0,.1.2.1.3.1s.2.1.3.1h.2s.1.2.2.3.1.3.2.3.3,0,.3.1v.4c.2.4,0,1.4.2,1.5.3,0,.7-.1,1-.3.2-.2.4-.4.6-.5.4-.2.7-.4,1.1-.5.3-.1.4-.5.7-.5s.2-.2.4-.3c.2-.1.5-.3.6-.2s.2.2.3.3c.2.1.4,0,.5.2,0,.2.6,0,.6,0,.3-.2.6-.4.9-.5s1-.5,1-.5c0,0,.5-.3.8-.4,8.3-4,14.9-6.2,21-8.6,9.4-3.6,25.7-7.8,28.8-8.6.3-.1,1-.2,1.1-.3.2-.1.3-.2.3-.4.1-.3-.1-.7-.1-.9s.3-.7.4-1c0-.1-.1-.3-.2-.3h0v-.5c-.1-.2-.5-.5-.6-.6-.1-.2,0-.7-.1-1-.1-.1-.2-.3-.3-.3v-.3c0-.1-.1-.2-.2-.2v-.5c0-.1-.2-.2-.2-.2,0,0-.2-.1-.2-.3,0-.1-.1-.2-.2-.3-.4.3-.6.3-.8.3-.2-.1-.4-.1-.6-.1-.2.1-.5.2-.8.3h-1c-.2,0-.5.2-.7.3-2.5.7-14.1,4-22.6,7.2-7.9,3-15.6,6.4-23.1,10.3-4.3,2.3-6.7,3.6-7.6,4.2-.4.2-.8.5-1.1.8-.1.2-.3.6-.6.6s-.3.3-.4.3c-.1.1-.3.2-.4.3,0,0,0,.1,0,.2"/>
      <path class="cls-1" d="m47.71,28.7c-.4-.2-.3-.4.2-.6,2.8-1.2,9.7-3.7,13.7-4.9,3.4-1.1,12.8-4.1,15.4-4.9.6-.2.9-.2,1.2.1.8.9,1.5,1.9,2.1,3,.6,1.2,1,2.5,1.3,3.9.2.8-.2.9-.6,1.1-3,1.3-10.2,4.4-13.2,5.8-3,1.4-8.3,3.9-10.1,4.8-.8.4-.6.5-1.2,0-.2-.2-.3-.5-.5-.7-.1-.1-1.1-1-1.2-1.1-.3-.3-.5-.6-.8-.9-.1-.1-.6-.8-.8-.9-.2-.1-.3-.2-.5-.3-.1-.2-.3-.3-.4-.4s-.4-.3-.4-.3l-.1-.3-.3-.4c-.1-.2-.3-.3-.4-.4-.2-.1-.4-.3-.5-.5-.3-.4-.6-.7-1-1-.3-.2-1-.6-1.2-.8-.2-.1-.4-.2-.7-.3"/>
      <path class="cls-1" d="m58.31,38.8c-.3-.3.1-.3.4-.4,1.2-.5,8.5-2.7,14.8-4.4s15.4-3.5,16.7-3.8c.6-.1.8,0,1.1.4.6,1.2,1,2.5,1.3,3.8.2,1.4.2,2.8-.1,4.1-.1.4-.7.4-1.9.7-.7.2-3.8,1-5.2,1.4-1.5.4-5.4,1.6-6.9,2-1.8.6-4.1,1.4-4.1,1.4l-12.4.2c-.1-.3-.2-.6-.3-.9-.1-.1-.3-.5-.4-.6-.1-.2-.2-.3-.3-.5,0,0-.1-.4-.2-.5s-.4-.7-.5-.8c-.2-.2-.3-.3-.5-.5-.1-.2-.2-.3-.4-.5-.2-.2-.4-.4-.6-.5-.1-.1-.2-.3-.5-.6"/>
      <path class="cls-1" d="m43.21,14.7c-.4,0-.7,0-.8-.1s0-.2-.1-.2c-.1-.1-.2-.1-.3,0,0,0-.1.1-.2.1s-.6-.1-.8-.1c-.2.1-.4.1-.6,0-.1-.1-.1-.4-.3-.5s-.4-.2-.6-.4c-.1-.2-.4-.5-.5-.6s-.2-.4-.2-.5c-.1-.1-.1-.3-.2-.4-.1-.1-.2-.2-.2-.2-.1-.1-.2-.3-.2-.5,0-.1-.1-.2-.2-.3,0-.1,0-.2-.1-.3,0-.1-.1-.2-.1-.3-.1-.4-.1-.8-.1-1.3,0-.4,0-.8.1-1.2,0-.2.2-.4.2-.6s.3-.9.4-1.2c.1-.4.2-.8.3-1.1.1-.3.3-.7.4-1,.1-.2.5-.8.7-1,.4-.4.7-.8,1.1-1.1l.7-.5c.1-.1.6-.4.8-.5.1-.1.2-.1.3-.1l.2-.2q.1-.1.2-.2h.4c.2-.1.4-.2.6-.2.1,0,.2-.2.3-.2h.6c.1.1.2.2.4.2h.5c.1,0,.1.2.2.2.5.4.9.8,1.2,1.2,0,.1.1.2.1.3.1.1.2.3.3.4,0,.2.3.3.3.6s.3.3.4.7c0,.1.1.4.1.5s.1.1.1.2.1.3.1.5.3.7.2,1.1c0,.3-.1.6-.2,1-.1.3,0,.8-.1,1s-.2.7-.2.9c-.2.4-.3.9-.5,1.3-.1.1-.3.6-.4.7-.1.1-1,1.3-1.1,1.5-.2.2-.5.4-.6.6-.1.1-.2.3-.3.5s-.4.1-.5.3-.4.3-.5.5-.2.4-.4.5c-.3-.1-.6,0-.9,0"/>
      <path class="cls-1" d="m18.21,51.3s-3.7,1.2-5.1,1.8c-1.5.5-2.9,1-3.9,1.4-1.2.5-3.4,1.4-4,1.6-.8.3-1.1.1-1.4-.4-.4-.9-.8-1.7-1-2.7-.2-.8-.4-1.7-.4-2.5,0-.5.3-1,.7-1.3.5-.2,1.5-.9,2.4-1.4,1.6-1,7.2-3.9,10.6-5.7,3.5-1.8,9.1-4.5,12.1-6s7.9-3.8,8.5-4.1c.5-.3,1-.4,1.5-.6.3,0,.2.2.2.3s-.1.2-.1.4,0,.5-.1.7-.3.4-.3.6c0,.3-.1.6-.2.9-.3.5-.6,1.1-.8,1.7-.1.5-.3,1-.5,1.4-.2.3-.4.7-.5,1.1,0,.2-.3.7-.3,1-.1.2-.5,1-.6,1.2-.1.1-.4,1.2-.4,1.3s-.4.6-.4.6l-.2.6c-.2.2-.3.5-.4.7-.1.5-.2.9-.4,1.3-.4.8-.7,1.6-1,2.4-.2.5-.4,1.4-.5,1.5-.1.2-.5.8-.6,1.1-.1.2-.5,1.3-.6,1.6-.2.3-.3.7-.4,1.1-.1.4-.2.7-.4,1.1-.2.4-.4,1.1-.5,1.4-.1.3-.3.4-.3.6,0,.1-.1.6-.1.7v.3c-.2.1-10.1,4.4-11.5,5l-12.2,5.8c-.6.3-1.5,1-2.1.5-.9-.7-1.6-1.7-2-2.7-.5-1-.8-2.1-1-3.3-.1-1.3.4-1.5,2.3-2.6,1-.5,8.2-4.4,10.5-5.6l5.4-2.8"/>
      <path d="m171.01,67.9c.3-1.1-.8-2-2.8-2s-3.6.9-3.8,2c-.3,1,.5,1.7,1.8,1.9l-.2.8h-3.4l-.2,1.5c2.1,0,6.1-.2,8.6-.5.1-.4.1-.9.2-1.3-1.1.1-2.2.2-3.3.3l.2-.7c1.6-.3,2.7-1,2.9-2m5.1-5.8h-2l-3.2,11.7h2l3.2-11.7Zm-3.8,3.6l.3-1.3h-7.9l-.3,1.3h7.9Zm-5.4-1.8h3.8l.4-1.3h-3.8l-.4,1.3Zm2.1,4.1c-.1.5-.8.8-1.5.8s-1.2-.3-1.1-.8c.3-.6.9-.9,1.5-.8.8-.1,1.3.3,1.1.8m-10.9-6h-1.9l-3.2,11.7h2l1.6-5.9h1.9l.3-1.4h-1.9l1.2-4.4Zm-4.4,7.5c-1.8-1-2.5-2.6-1.8-5.1l.4-1.5h-2.1l-.4,1.5c-.6,2.5-2.4,4.5-4.7,5.4.3.4.6.9.9,1.3,1.6-.7,3-1.8,4-3.2.3,1.3,1.1,2.3,2.3,2.9.4-.3.9-.8,1.4-1.3m-21.6-3.9c.3-.9,1.2-1.4,2.1-1.4,1,0,1.6.5,1.4,1.4-.3.9-1.2,1.4-2.1,1.4-1.1,0-1.7-.6-1.4-1.4m5,3.8c-1,.1-2.7.2-4.5.3h-4.3l-.2,1.5c1.2,0,2.9,0,4.3-.1,1.5-.1,3.4-.2,4.4-.3l.3-1.4Zm4.6-7.4h-2l-3.1,11.7h1.9l3.2-11.7Zm-11.5,3.5c-.5,1.7.8,2.8,2.9,2.8s4-1.1,4.4-2.8c.5-1.7-.9-2.8-2.9-2.8-2.1,0-4,1.2-4.4,2.8m-6.9,3.5l.4-1.4h-12.2l-.4,1.4h12.2Zm-.9-2.3l.4-1.4h-7.1l.8-2.9h-2l-1.1,4.3h9Zm-1.7,6.7l.4-1.4h-7.3l.6-2.1h-2l-1,3.5h9.3Zm-21.8.1l.2-.8.5,1c1-.3,1.9-.9,2.6-1.6.2.8.9,1.4,1.6,1.6l1.4-1.4c-1-.2-1.7-1.1-1.5-2.1,0-.1.1-.2.1-.4l.3-1h-1.9l-.3,1c-.4,1.3-1.5,2.2-2.8,2.5l1-3.4h-1.9l-.3,1.2h-1.1l.3-1.2h-1.9l-1.2,4.6h4.9Zm-4-8.2c-.4,1.6.8,2.7,2.8,2.7s3.8-1.1,4.3-2.7-.8-2.7-2.8-2.7c-2,0-3.9,1-4.3,2.7m10.3,3l1.7-6.2h-2l-.7,2.5h-1.5l-.4,1.4h1.5l-.7,2.3h2.1Zm-8.4-3c.3-.8,1.1-1.4,1.9-1.3,1,0,1.5.5,1.3,1.3-.3.9-1.1,1.4-2,1.3-.9.1-1.4-.4-1.2-1.3m.5,7h-1.1l.2-.9h1.1l-.2.9Zm-12.2-1c-.2.7-1.2,1.1-2.9,1.1s-2.4-.4-2.2-1.1c.2-.7,1.3-1.1,2.8-1.1s2.5.4,2.3,1.1m2.7-2.7l1.8-6.6h-2l-.5,1.9h-2.1l-.3,1.3h2.1l-.3,1h-2.2l-.4,1.3h2.2l-.3,1,2,.1Zm-9-5.8l-.4,1.4h4.2c-.7,1.5-3.2,3-5.8,3.4l.4,1.4c4-.9,7-3,7.9-6.2,0,0-6.3,0-6.3,0Zm8.4,8.5c.4-1.5-1.1-2.5-4-2.5s-4.8,1-5.2,2.5c-.4,1.5,1,2.4,3.9,2.4s4.9-.9,5.3-2.4m-26.7-1.8l-.4,1.4h7.2l-.8,2.8h2l1.1-4.2h-3.5l.5-1.8h5.1l.4-1.3h-1.9c.6-1.2,1.1-2.6,1.4-3.9h-9l-.4,1.4h7c-.2.9-.6,1.7-1,2.5h-8.3l-.3,1.3h5.1l-.5,1.8h-3.7Z"/>
    </g>
  </g>
</svg>